<svg xmlns="http://www.w3.org/2000/svg" viewBox="0 0 283.46 288.77" aria-label="Tropenbos Ghana"><title>logo2ghana</title><path d="M295.07,130v2.75q-141.61.11-283.46,0V130h134.5c0-5.3-.79-10.18-3.8-12.59a13.86,13.86,0,0,0-5.88-2.38c-2.21-.46-4.68-0.63-7-1.21a21.33,21.33,0,0,1-5.55-2.71c-1.59-.9-4.91-0.82-7.09-1.13a13.39,13.39,0,0,1-6.13-2.09c-0.72-.52-1.46-1.2-2.25-1.88a3.31,3.31,0,0,0-2.84-1.08,2.36,2.36,0,0,0-2.13,2.09,9.85,9.85,0,0,0,.42,2,3.68,3.68,0,0,1-1.33,3.29c-0.37.34-1.29,0.77-1.29,1.33,0,1.06.5,1.93,0.17,3.09a2.31,2.31,0,0,1-1.71,1.75,7.44,7.44,0,0,1-3.09-.21c-0.86-.17-2.59-0.75-3.5-0.21s-1.38,1.5-2.21,2.13a3.77,3.77,0,0,1-3.42.62C92.3,101.94,99.88,85.85,108.7,71a114.19,114.19,0,0,0,43,9.42v49.5c1.07,0.1,2.32,0,3.46,0V80.42a114.37,114.37,0,0,0,43.33-8.84c8.66,14.65,16.17,30.68,20.85,49.17-1.65.26-2.81,0.6-4.21,0.71a4.26,4.26,0,0,1-3.67-1.08c-1.57-1.74.37-3.77,1.25-5a2.81,2.81,0,0,0,.83-2.34,1.91,1.91,0,0,0-1.63-1.21c-1.23-.2-2.83.23-3.63-0.46-1.35-1.18.52-3.82,0.75-4.84a1.15,1.15,0,0,0-.71-1.42c-1.3-.36-2.22,1-3.42,1s-1.5-.9-2.58-0.63-1.52,1.22-2.17,2a7,7,0,0,1-2.29,1.87c-1,.48-1.86.93-2.83,1.34a14.32,14.32,0,0,1-3.55.62c-7.42.88-15.64,1.16-22.06,3a15.12,15.12,0,0,0-5.46,2.88,9.85,9.85,0,0,0-3.59,4.79c-0.62,2-.39,5.23-0.54,7.8C204.79,130,250,129.93,295.07,130ZM201.82,98.72c0.91-.66,3-2,2.92-3.59a2,2,0,0,0-1-1.5c-1.52-.78-4.57.25-6.13-0.5-1.09-.52-1-2-1.54-3a4.72,4.72,0,0,0-2.46-2.29c-2.18-.75-4.34,1-5.5,1.92a21.48,21.48,0,0,0-5.21,6.71,16.5,16.5,0,0,1-2.38,3.58,16.68,16.68,0,0,1-3.42,2.55,34.32,34.32,0,0,0-8.34,6.55,4.13,4.13,0,0,0-1.13,1.88,25.92,25.92,0,0,0,3.38-.92,20.64,20.64,0,0,1,3.92-.5c2.71-.13,5.63-0.15,8.51-0.33a45.44,45.44,0,0,0,11.39-1.84,8.34,8.34,0,0,0,3-1.46,3.62,3.62,0,0,0,1-2.21c0-.71-0.47-1.27-0.38-2s1-1.31,1.54-1.71C200.63,99.58,201.19,99.19,201.82,98.72Zm-22.23-2.59c0.31-1.66-.79-2.36-2.17-2.21a7.26,7.26,0,0,0-3.29,1.42c-1,.64-1.86,1.36-2.71,2a13,13,0,0,1-2.88,1.79,8.26,8.26,0,0,1-1.92.42,13,13,0,0,0-2,.29,6.63,6.63,0,0,0-2.83,2.38,16.43,16.43,0,0,0-3.55,9.59c-0.06.83-.08,2,0.42,2.13s1-.91,1.13-1.21a18.16,18.16,0,0,1,3-4.3,15.4,15.4,0,0,1,2.88-2c2.09-1.17,4.29-2.33,6.26-3.46a31.45,31.45,0,0,0,5.8-3.92A5.94,5.94,0,0,0,179.59,96.14Zm-34.32,17.94a4.75,4.75,0,0,0-.25-2.88,11.41,11.41,0,0,0-4-6.34,24.1,24.1,0,0,0-4.34-2.58,22.21,22.21,0,0,1-4.55-2.38c-0.8-.68-1.15-1.78-1.84-2.59a3.8,3.8,0,0,0-2-1.29c-1.8-.37-2.74,1.2-3.46,2.17-0.6.81-1.2,1.68-1.79,2.46-1.1,1.43-2.75,3.31-5.09,3.38-1.46,0-2-1.4-3.21-1.59-1.41-.21-3.08,1.06-3,2.42,0.09,1,1.3,1.44,2.29,1.71,3.08,0.84,7.11.4,9.93,1.42s5,2.73,8.3,3a24,24,0,0,0,3.38-.33,9.38,9.38,0,0,1,5.17,1.34c0.72,0.36,1.42.74,2.13,1.12A6,6,0,0,0,145.27,114.07Z" transform="translate(-11.61 -11.9)" style="fill:#009c57"></path><path d="M291,118.07c0.47,1.05,1,3.2-.08,4a5.7,5.7,0,0,1-3.38.71,14.47,14.47,0,0,1-2.58-.58c-2.85-.64-5.36,1-8.22.5s-3.57-2.61-5.76-3.63a3.38,3.38,0,0,0-1.25-.33,6.69,6.69,0,0,1-2.25-.17,3.18,3.18,0,0,1-2-2c-0.13-1.06.39-2.37-.17-3.3-2.14-.17-3.72,1.86-5.71.92a2.41,2.41,0,0,1-.79-0.59c-0.4-.46-0.67-1.5-1.21-1.67a2.66,2.66,0,0,0-1.67.25,5.4,5.4,0,0,1-1.59.37c-1.66,0-2.34-1.88-2.13-3.75a6.61,6.61,0,0,0,.29-1.75c-0.23-1.42-2.42-1.79-4.13-1.5s-3.27,1.09-4.88,1a5.7,5.7,0,0,1-2.34-1,3.77,3.77,0,0,0-2.75-.71,3.29,3.29,0,0,0-1.59,3.8,2.12,2.12,0,0,0,.75.92c1.64,1.12,4.38.34,6.3,0.67a4.25,4.25,0,0,1,2.29,1.25,5,5,0,0,1,1.54,2c0.3,0.77.2,1.7,0.88,2,1.08,0.55,2.63-.17,3.21.88a2.37,2.37,0,0,1-1,3.13c-1.31.49-3.15,0.14-4.67,0.37a8.52,8.52,0,0,0-3.21,1.38c-1.07.66-1.78,1.43-3,1.63s-2.3-.67-3.21-1.29a6.22,6.22,0,0,0-3.25-1.38,8.1,8.1,0,0,0-3.46,1.13c-1.54.72-3.66,1.65-5.38,0.62a2.8,2.8,0,0,0-1.54-.75c-4.79-19.37-12.48-35.84-21.35-51.13a116.43,116.43,0,0,0,39-28.61,144.2,144.2,0,0,1,45.92,60.05c-1,1.53-3.59,2-5.92,1.33a6.87,6.87,0,0,1-3.63-2.25,2.5,2.5,0,0,0-1.17-1.25c-1.53-.44-3,1.24-4.76.58-1.13-.43-1.36-1.85-2.33-2.54-1.49-1.07-3.75-.08-4.63-1.67-0.21-.39-0.29-1.22-0.46-1.54a4.47,4.47,0,0,0-2.25-1.84,6.74,6.74,0,0,0-3.5.46,51.88,51.88,0,0,1-6.3,2c-1.41.27-3.24,0.45-4.21-.33-0.54-.43-1.09-1.53-1.84-1.75-1.24-.36-2.56.81-2.21,1.84a1.91,1.91,0,0,0,1.13.67c1.8,1,1.91,3.61,4.09,4.25a5.89,5.89,0,0,0,4.79-.92,6.4,6.4,0,0,1,2-1,2.74,2.74,0,0,1,2.5.63c0.62,1,.18,3,0.71,4a3.12,3.12,0,0,0,2.67,1.46c1.25,0.11,2.92-.51,4,0a3.56,3.56,0,0,1,1.5,2.46c0.27,1.15.56,2.45,1.63,2.63a5.6,5.6,0,0,0,1.71-.16,3.64,3.64,0,0,1,4,2.71,11.83,11.83,0,0,0,.29,2.42c0.86,1.85,3.54,2.09,6.34,2.09,1.3,0,2.67-.15,4-0.21a12.23,12.23,0,0,1,3.92.17A3.78,3.78,0,0,1,291,118.07Z" transform="translate(-11.61 -11.9)" style="fill:#009c57"></path><path d="M201.91,20.36a143.55,143.55,0,0,1,36,19.06,112.89,112.89,0,0,1-38,27.78A269.8,269.8,0,0,0,155.16,12l0,0A142.57,142.57,0,0,1,201.91,20.36Z" transform="translate(-11.61 -11.9)" style="fill:#009c57"></path><path d="M196.15,67.74a2.13,2.13,0,0,1,.46.88A112.41,112.41,0,0,1,155.11,77V16.86l0-.08A266.76,266.76,0,0,1,196.15,67.74Z" transform="translate(-11.61 -11.9)" style="fill:#009c57"></path><path d="M151.65,16.82V77a109.8,109.8,0,0,1-41.08-9,1.7,1.7,0,0,1,.46-0.83c2.76-4.38,5.59-8.8,8.59-13a267.39,267.39,0,0,1,20.56-25.56c1.83-2,3.68-4,5.59-5.92S149.68,18.55,151.65,16.82Z" transform="translate(-11.61 -11.9)" style="fill:#009c57"></path><path d="M151.53,12c0.21,0.09-.11.25-0.21,0.33a239.51,239.51,0,0,0-23.44,25.27,263.28,263.28,0,0,0-20.56,28.94A116.22,116.22,0,0,1,69.75,38.71a142.32,142.32,0,0,1,55.84-24.06c3.72-.75,7.53-1.37,11.51-1.79s8.12-.63,12.47-0.83A6,6,0,0,1,151.53,12Z" transform="translate(-11.61 -11.9)" style="fill:#009c57"></path><path d="M105.49,69.53A200.39,200.39,0,0,0,85.72,114a6.44,6.44,0,0,1-.21.8,2.45,2.45,0,0,1-.58.33,1.55,1.55,0,0,0-.42.5,6.83,6.83,0,0,0-3.67,0,12.22,12.22,0,0,0-2.5,1.79c-1.58,1.19-3.5,2.49-6.34,1.92-1-.2-2.37-0.86-3.59-0.63s-2.28,1.22-3.75,1.71c-1.78.59-4.37,0.14-4.71-1.63a2.55,2.55,0,0,1,1.46-2.92c0.68-.25,1.5-0.32,2.21-0.54a5.36,5.36,0,0,0,1.84-.92c0.89-.75,1.3-2.28,2.42-3.08a4.9,4.9,0,0,1,2.13-.62,2.88,2.88,0,0,0,1.84-.92c1-1.09.89-3.36-.83-3.59a4.5,4.5,0,0,0-2.17.42,3.66,3.66,0,0,1-2,.54,1.67,1.67,0,0,1-1-1.13,7.52,7.52,0,0,1,0-2,1.2,1.2,0,0,0-.79-1.42c-0.52,0-1,.94-1.29,1.42a13.81,13.81,0,0,1-3.5,4.55,5.64,5.64,0,0,1-4.13,1.16c-1.59-.17-3-1.42-4.71-0.87a7.67,7.67,0,0,0-2.63,2c-0.74.74-1.54,1.56-2.38,2.25-1.47,1.21-5.78,2.89-7.67.87a10.17,10.17,0,0,1-1.33-2.5c-0.32-.69-0.93-2.22-1.75-2.17-1,.06-1.68,1.2-2.21,1.84-1.27,1.53-2.63,2.88-5.46,2.54-1.15-.14-2.24-0.54-3.34-0.67-3.05-.37-3.26,2.74-6.26,2.75a2.53,2.53,0,0,1-2.17-.84c-0.45-.87.24-3,0.5-3.75,0.41-1.17,1-2.52,1.92-3,1.43-.8,3.25-0.08,5.09-0.42,1.48-.27,2.3-1.24,3.55-2.09a8.38,8.38,0,0,1,6.51-1.75,6.85,6.85,0,0,0,2.54.37,4.26,4.26,0,0,0,1.63-1.46,5.05,5.05,0,0,1,1.75-1.34c1.1-.41,2.36.21,3.55,0.33a4.9,4.9,0,0,0,3.34-.67c1.68-1.14,2-3.45,3.17-5A4.9,4.9,0,0,1,52,94.43a10.48,10.48,0,0,0,2.79-1.08c1-.82,1.49-4.08-0.29-4.34-0.88-.13-1.77.68-2.34,1.17-1.72,1.5-2.77,3.45-5.84,3.71a12.73,12.73,0,0,1-3-.12,8.74,8.74,0,0,0-2.79-.21,10.18,10.18,0,0,0-2.38.79,3.9,3.9,0,0,1-2.46.54,3.65,3.65,0,0,1-1.59-1.09A3.62,3.62,0,0,0,30.42,93c-0.53.18-1,.55-1.54,0.71a5.4,5.4,0,0,1-2.71-.17,3.44,3.44,0,0,1-2-1c1.65-2.71,2.33-5.62,5.3-6.72a4,4,0,0,1,1.75-.25,5.57,5.57,0,0,0,2.46.08,7.37,7.37,0,0,0,2-1.67l1.84-1.84a18.67,18.67,0,0,1,4.09-3.3c1.58-.82,3.18-0.17,4.71.54S49.38,81,51,80.25c0.7-.32,1.07-1.07,2-1.08,1.2,0,1.84.81,2.75,1.25,1.28,0.62,3.61.94,4.3-.42s0-4,1.84-4.46a21,21,0,0,0,2.25-.21,4.82,4.82,0,0,0,1.71-1.88,4.49,4.49,0,0,1,4.5-2.34c0.91,0,2.17.43,3.09,0.12a2.26,2.26,0,0,0,1.25-2.29c-0.27-1.15-1.71-1.46-3-1A34.36,34.36,0,0,1,68.29,69a6.81,6.81,0,0,1-3.63-.62,7.16,7.16,0,0,0-3.84-.29c-2.26.58-3.88,2.18-6.17,2.84-2.62.75-5.62,0.58-6.51-1.63C48,68.89,48,67.76,47.89,67.49a1,1,0,0,0-.83-0.5c-1.1-.07-1.73.94-2.46,1.42a7.09,7.09,0,0,1-2.71,1.17,5.86,5.86,0,0,1-3.34-.37,3.47,3.47,0,0,1,.67-1,141.72,141.72,0,0,1,12.43-14.1A139,139,0,0,1,66.91,40.8,121.33,121.33,0,0,0,105.49,69.53Z" transform="translate(-11.61 -11.9)" style="fill:#009c57"></path><path d="M12.35,188.74l0.42,1.72a145.73,145.73,0,0,0,50.64,78.77,142.9,142.9,0,0,0,89.83,31.44H154l0.42,0a142.87,142.87,0,0,0,88.69-31.42,145.74,145.74,0,0,0,50.62-78.77l0.42-1.72H12.35ZM145.8,229.65a114.4,114.4,0,0,0-42,11.38,210.21,210.21,0,0,1-20-49.51h62.44Zm0,2.79-0.64,60.49a202.19,202.19,0,0,1-24.35-26.1,204.92,204.92,0,0,1-15.64-23.38A111.62,111.62,0,0,1,145.77,232.44Zm-27.19,36.1a199.41,199.41,0,0,0,26.51,28v1.09a141.43,141.43,0,0,1-75.7-27.14,116.9,116.9,0,0,1,33.28-25.81A207.78,207.78,0,0,0,118.59,268.54Zm42.89,28a200.37,200.37,0,0,0,26.49-28A208.19,208.19,0,0,0,204.25,244a113.46,113.46,0,0,1,33.84,25.76,141.44,141.44,0,0,1-76.61,27.85v-1.15Zm24.3-29.7a202.43,202.43,0,0,1-24.31,26.05l-0.25-60.46a113.11,113.11,0,0,1,40.53,10.43A205.36,205.36,0,0,1,185.77,266.79ZM161.19,229.6L161,191.52h61.71a209.91,209.91,0,0,1-19.64,48.87A115.89,115.89,0,0,0,161.19,229.6ZM15.91,191.52h65a212.83,212.83,0,0,0,20.39,50.76,119.69,119.69,0,0,0-34.14,26.56A141.72,141.72,0,0,1,15.91,191.52Zm224.4,76.59a116.24,116.24,0,0,0-34.7-26.5,212.56,212.56,0,0,0,20-50.09h65A141.73,141.73,0,0,1,240.31,268.1Z" transform="translate(-11.61 -11.9)" style="fill:#009c57"></path><path d="M30.06,145.77H24.61V179H21.23V145.77H15.78v-3.09H30.06v3.09Z" transform="translate(-11.61 -11.9)" style="fill:#231f20"></path><path d="M33.29,179V142.68h3.62c5.06,0,9.94.39,9.94,9.26,0,4.63-1,9.16-6.85,9.36L48,179H44.48l-7.72-17.8h-0.1V179H33.29Zm3.38-20.55h1.21c4.73,0,5.5-1.64,5.5-6.42,0-5.74-1.74-6.32-6-6.32H36.67V158.5Z" transform="translate(-11.61 -11.9)" style="fill:#231f20"></path><path d="M68.45,160.86c0,6.8-.48,18.67-8.92,18.67-8,0-8.92-10.18-8.92-18.67,0-9.21,1.21-18.67,8.92-18.67C67.73,142.2,68.45,152.86,68.45,160.86Zm-14.37,0c0,6.42.24,15.39,5.45,15.39s5.45-9,5.45-15.39-0.24-15.39-5.45-15.39C54.32,145.24,54.08,154.45,54.08,160.86Z" transform="translate(-11.61 -11.9)" style="fill:#231f20"></path><path d="M73.18,179V142.68h3.76c5.21,0,9.84.48,9.84,9.45,0,7-2.46,9.5-9.36,9.5H76.56V179H73.18Zm3.38-20.5h1.3c4.73,0,5.31-1.74,5.45-6.42,0-5-1.35-6.37-6.08-6.37H76.56v12.78Z" transform="translate(-11.61 -11.9)" style="fill:#231f20"></path><path d="M101.88,145.77H93.82V158.6h7.81v3.09H93.82V176h8.05V179H90.45V142.68h11.43v3.09Z" transform="translate(-11.61 -11.9)" style="fill:#231f20"></path><path d="M121.89,179H119l-8.2-24.45c-0.53-1.5-.82-3.14-1.25-4.68H109.3c0.15,2.36.39,4.68,0.39,7V179h-2.94V142.68h2.94L118,168c0.43,1.25.77,2.51,1.11,3.76h0.14c-0.1-1.59-.34-3.23-0.34-4.82V142.68h2.94V179Z" transform="translate(-11.61 -11.9)" style="fill:#231f20"></path><path d="M132.46,142.68c4.78,0,8.73.58,8.73,9,0,3.57-.63,6.61-4.24,8.54,4.34,1.4,5.11,4.77,5.11,8.83,0,7.57-2.6,10-9.94,10h-4.39V142.68h4.73Zm-1.35,2.89v13.17H132c2.75,0,5.69.48,5.69-6.8,0-5.74-1.35-6.37-5.69-6.37h-0.92Zm0,16.06v14.52H132c5.06,0,6.56-1.64,6.56-6.85,0-6.13-2.17-7.67-6.46-7.67h-1Z" transform="translate(-11.61 -11.9)" style="fill:#231f20"></path><path d="M163.71,160.86c0,6.8-.48,18.67-8.92,18.67-8,0-8.92-10.18-8.92-18.67,0-9.21,1.21-18.67,8.92-18.67C163,142.2,163.71,152.86,163.71,160.86Zm-14.37,0c0,6.42.24,15.39,5.45,15.39s5.45-9,5.45-15.39-0.24-15.39-5.45-15.39C149.58,145.24,149.34,154.45,149.34,160.86Z" transform="translate(-11.61 -11.9)" style="fill:#231f20"></path><path d="M181.08,148.42c-1.45-1.64-3-2.94-5.35-2.94-3.38,0-5.26,2.8-5.26,5.88,0,4.24,3.09,6.22,6.22,8.34s6.17,4.49,6.17,9.5c0,5.31-3.42,10.32-9.12,10.32A9.47,9.47,0,0,1,168,177.7v-4.39a8.3,8.3,0,0,0,5.88,2.94c3.57,0,5.55-3.13,5.5-6.42,0-4.24-3.09-6.12-6.17-8.3s-6.22-4.49-6.22-9.69c0-4.87,3-9.65,8.34-9.65a9.78,9.78,0,0,1,5.74,1.93v4.29Z" transform="translate(-11.61 -11.9)" style="fill:#231f20"></path><path d="M204.08,159.85h8.3v6.7c0,5.74-.29,13-7.81,13s-8.39-8.05-8.39-19.53c0-8.59,1-17.8,8.73-17.8,4.34,0,6.51,2.89,7.43,6.85l-3.33,1.3c-0.39-2.17-1.3-4.87-4-4.87-5,0-5.4,7.81-5.4,14.23,0,13.46,1.69,16.54,5.21,16.54,3.81,0,4.15-2.8,4.15-10.56v-2.75h-4.92v-3.09Z" transform="translate(-11.61 -11.9)" style="fill:#231f20"></path><path d="M232.2,179h-3.38V160.28h-8.34V179H217.1V142.68h3.38V157.2h8.34V142.68h3.38V179Z" transform="translate(-11.61 -11.9)" style="fill:#231f20"></path><path d="M252.7,179h-3.62l-1.35-7.48H240l-1.3,7.48H235.1l7.14-36.37h3.18Zm-5.5-10.42-2.41-13.94c-0.43-2.46-.63-5-0.92-7.43h-0.19c-0.34,2.46-.58,5-1,7.43l-2.12,13.94h6.61Z" transform="translate(-11.61 -11.9)" style="fill:#231f20"></path><path d="M270.74,179H267.8l-8.2-24.45c-0.53-1.5-.82-3.14-1.25-4.68h-0.19c0.14,2.36.39,4.68,0.39,7V179h-2.94V142.68h2.94L266.88,168c0.43,1.25.77,2.51,1.11,3.76h0.14c-0.1-1.59-.34-3.23-0.34-4.82V142.68h2.94V179Z" transform="translate(-11.61 -11.9)" style="fill:#231f20"></path><path d="M291.29,179h-3.62l-1.35-7.48H278.6L277.3,179h-3.62l7.14-36.37H284Zm-5.5-10.42-2.41-13.94c-0.43-2.46-.63-5-0.92-7.43h-0.19c-0.34,2.46-.58,5-1,7.43l-2.12,13.94h6.61Z" transform="translate(-11.61 -11.9)" style="fill:#231f20"></path></svg>